<?xml version="1.0" encoding="UTF-8"?>
<svg xmlns="http://www.w3.org/2000/svg" xmlns:xlink="http://www.w3.org/1999/xlink" version="1.1" id="Ebene_1" x="0px" y="0px" viewBox="0 0 595.3 255.1" style="enable-background:new 0 0 595.3 255.1;" xml:space="preserve"> <style type="text/css"> .st0{clip-path:url(#SVGID_2_);fill:#00457C;} .st1{clip-path:url(#SVGID_4_);fill:#00457C;} .st2{clip-path:url(#SVGID_6_);fill:#C9D300;} .st3{clip-path:url(#SVGID_8_);fill:#00457C;} .st4{clip-path:url(#SVGID_10_);fill:#00457C;} .st5{clip-path:url(#SVGID_12_);fill:#C9D304;} .st6{fill:#00457C;} </style> <g> <g> <g> <defs> <rect id="SVGID_1_" x="29.9" y="63" width="534.6" height="132.5"/> </defs> <clipPath id="SVGID_2_"> <use xlink:href="#SVGID_1_" style="overflow:visible;"/> </clipPath> <path class="st0" d="M272.3,64.8v101c0,1,0.8,1.8,1.8,1.8h23.4c1,0,1.8-0.8,1.8-1.8V138l28.9,29c0.3,0.3,0.8,0.5,1.3,0.5H359 c1,0,1.8-0.8,1.8-1.8c0-0.5-0.2-1-0.5-1.3l-36-34.9c-0.7-0.7-0.7-1.8,0-2.6c0,0,0,0,0.1,0l31.2-29.7c0.7-0.7,0.7-1.8,0.1-2.6 c-0.3-0.4-0.8-0.6-1.3-0.6H324c-0.5,0-0.9,0.2-1.3,0.5l-23.3,23.4V64.8c0-1-0.8-1.8-1.8-1.8h-23.4 C273.2,63,272.3,63.8,272.3,64.8"/> </g> <g> <defs> <rect id="SVGID_3_" x="29.9" y="63" width="534.6" height="132.5"/> </defs> <clipPath id="SVGID_4_"> <use xlink:href="#SVGID_3_" style="overflow:visible;"/> </clipPath> <path class="st1" d="M66.1,94.5c0,0-11.7,8.5-11.7,23.3s14.2,21.4,27.7,26c13.2,4.3,41.2,11.3,46.9,23.7H47.9c-10,0-18-8.1-18-18 v-37c0-10,8.1-18,18-18H66.1z"/> </g> <g> <defs> <rect id="SVGID_5_" x="29.9" y="63" width="534.6" height="132.5"/> </defs> <clipPath id="SVGID_6_"> <use xlink:href="#SVGID_5_" style="overflow:visible;"/> </clipPath> <path class="st2" d="M75.3,94.5c0,0-9.5,21.5,11.8,32s43.3,12.9,55.5,26.6v-40.6c0-10-8.1-18-18-18 C124.6,94.5,75.3,94.5,75.3,94.5z"/> </g> <g> <defs> <rect id="SVGID_7_" x="29.9" y="63" width="534.6" height="132.5"/> </defs> <clipPath id="SVGID_8_"> <use xlink:href="#SVGID_7_" style="overflow:visible;"/> </clipPath> <path class="st3" d="M401.7,149.2c-12.2,0-12.7-6.2-12.7-7.4v-4.3h67.2c1,0,1.8-0.8,1.8-1.8V125c0.4-32-31.4-30.4-35.5-30.4 h-27.8c-35.1,0-32.2,28.9-32.2,32v9c0.4,35.1,23.3,32,61.6,32c14.8,0,25.3-5,32-15.6c0.5-0.8,0.3-2-0.6-2.5 c-0.3-0.2-0.6-0.3-1-0.3C454.6,149.1,405.8,149.2,401.7,149.2 M395.3,112.5H426c3.5,0,6.3,2.8,6.3,6.3v2.7H389v-2.7 C389,115.3,391.8,112.5,395.3,112.5"/> </g> <g> <defs> <rect id="SVGID_9_" x="29.9" y="63" width="534.6" height="132.5"/> </defs> <clipPath id="SVGID_10_"> <use xlink:href="#SVGID_9_" style="overflow:visible;"/> </clipPath> <path class="st4" d="M491.1,176.6h-5.2c-1,0-1.8,0.8-1.8,1.8v14.4c0,1,0.8,1.8,1.8,1.8h11c6.2,0,19.8,0.8,27.2-13.5l40-84 c0.4-0.9,0-2-0.9-2.4c-0.2-0.1-0.5-0.2-0.8-0.2H536c-0.7,0-1.4,0.4-1.7,1.1l-21.4,50.8l-21.4-50.8c-0.3-0.7-0.9-1.1-1.7-1.1 h-26.4c-1,0-1.8,0.8-1.8,1.8c0,0.3,0.1,0.5,0.2,0.8l37,76c0.4,0.9,0.1,2-0.8,2.4c-0.1,0-0.2,0.1-0.3,0.1 C495.4,176.3,493.2,176.6,491.1,176.6"/> </g> <g> <defs> <rect id="SVGID_11_" x="29.9" y="63" width="534.6" height="132.5"/> </defs> <clipPath id="SVGID_12_"> <use xlink:href="#SVGID_11_" style="overflow:visible;"/> </clipPath> <path class="st5" d="M203.5,149.2c-12.2,0-12.7-6.2-12.7-7.4v-4.3h47.1H258c1,0,1.8-0.8,1.8-1.8V125c0.4-32-31.4-30.4-35.5-30.4 h-27.8c-35.1,0-32.3,28.9-32.3,32v9c0.4,35.1,23.3,32,61.6,32c14.8,0,25.3-5,32-15.6c0.5-0.8,0.3-2-0.6-2.5 c-0.3-0.2-0.6-0.3-1-0.3C256.4,149.1,207.6,149.2,203.5,149.2 M199.8,112.5h25.3c5,0,9,4,9,9h-43.3 C190.8,116.5,194.8,112.5,199.8,112.5"/> </g> </g> <g> <path class="st6" d="M37,201.6L30.3,191h4.1l4.5,7.8l4.5-7.8h3.9l-6.7,10.6v7.6H37V201.6z"/> <path class="st6" d="M57.7,209.6c-1.8,0-3.4-0.4-4.8-1.2c-1.5-0.8-2.6-1.9-3.5-3.4c-0.9-1.4-1.3-3.1-1.3-5c0-1.7,0.4-3.3,1.2-4.7 s2-2.6,3.4-3.5c1.5-0.9,3.1-1.3,5-1.3c1.8,0,3.4,0.4,4.9,1.2s2.6,1.9,3.5,3.4s1.3,3.1,1.3,5c0,1.7-0.4,3.3-1.2,4.7 c-0.8,1.4-2,2.6-3.4,3.5S59.5,209.6,57.7,209.6z M57.7,206.3c1.1,0,2.1-0.3,3-0.8s1.6-1.2,2.1-2.2s0.8-2.1,0.8-3.3 s-0.2-2.2-0.7-3.1s-1.2-1.7-2.1-2.3c-0.9-0.6-1.9-0.8-3.1-0.8c-1.1,0-2.1,0.3-3,0.8s-1.6,1.2-2.1,2.2s-0.8,2-0.8,3.3 c0,1.2,0.2,2.2,0.7,3.1c0.5,0.9,1.2,1.7,2.1,2.3S56.5,206.3,57.7,206.3z"/> <path class="st6" d="M78.6,209.6c-2.5,0-4.5-0.7-5.9-2.1c-1.4-1.4-2.1-3.4-2.1-6V191h3.7v10.3c0,3.4,1.5,5.1,4.4,5.1 s4.4-1.7,4.4-5.1V191h3.7v10.5c0,2.6-0.7,4.6-2.1,6C83.2,208.9,81.2,209.6,78.6,209.6z"/> <path class="st6" d="M91.2,190.9h5.9c2.1,0,3.7,0.5,5,1.5s1.8,2.5,1.8,4.3c0,1.1-0.3,2-0.8,2.9s-1.3,1.5-2.3,2.1l4.9,7.5h-4.1 l-3.9-6.6c-0.3,0-0.5,0-0.7,0s-0.4,0-0.5,0h-1.8v6.5h-3.5V190.9z M94.7,199.7h1.8c2.5,0,3.8-1,3.8-3c0-0.9-0.3-1.7-0.9-2.2 s-1.5-0.7-2.7-0.7h-1.9v5.9H94.7z"/> <path class="st6" d="M114.1,190.9h11.8v3.1h-8.1v4.9h7v3.1h-7v7.3h-3.6v-18.4H114.1z"/> <path class="st6" d="M129.3,190.9h3.7v18.3h-3.7V190.9z"/> <path class="st6" d="M137.6,190.9h3.3l9.6,12.7v-12.7h3.5v18.3h-3.3l-9.6-12.6v12.6h-3.5V190.9z"/> <path class="st6" d="M167.4,209.4c-2,0-3.7-0.4-5.2-1.1c-1.5-0.7-2.7-1.8-3.5-3.2s-1.3-3-1.3-4.9s0.4-3.5,1.2-5 c0.8-1.4,2-2.6,3.6-3.4s3.4-1.2,5.5-1.2c1.1,0,2.2,0.1,3.3,0.4c1.1,0.2,2.1,0.6,3,1.1l-0.6,3.2c-0.8-0.4-1.8-0.8-2.8-1 s-2-0.3-3-0.3c-1.2,0-2.4,0.2-3.3,0.7c-1,0.5-1.7,1.2-2.3,2.2c-0.5,0.9-0.8,2-0.8,3.3c0,1.9,0.6,3.4,1.7,4.5 c1.1,1.1,2.7,1.6,4.7,1.6c1,0,2.2-0.2,3.4-0.5v-3.9h-3.7V199h7.1v9.2C172.3,209,169.9,209.4,167.4,209.4z"/> <path class="st6" d="M178.4,190.9h12.1v3.1H182v4.4h7.5v3.1H182v4.7h8.8v3.1h-12.4L178.4,190.9L178.4,190.9z"/> <path class="st6" d="M194.8,190.9h5.9c2.1,0,3.7,0.5,5,1.5s1.8,2.5,1.8,4.3c0,1.1-0.3,2-0.8,2.9s-1.3,1.5-2.3,2.1l4.9,7.5h-4.1 l-3.9-6.6c-0.3,0-0.5,0-0.7,0s-0.4,0-0.5,0h-1.8v6.5h-3.5L194.8,190.9L194.8,190.9z M198.3,199.7h1.8c2.5,0,3.8-1,3.8-3 c0-0.9-0.3-1.7-0.9-2.2c-0.6-0.5-1.5-0.7-2.7-0.7h-1.9v5.9H198.3z"/> <path class="st6" d="M214.1,209.3c-0.6,0-1.1-0.2-1.5-0.6c-0.4-0.4-0.6-0.9-0.6-1.4c0-0.6,0.2-1,0.6-1.4c0.4-0.4,0.9-0.5,1.5-0.5 s1.1,0.2,1.5,0.6c0.4,0.4,0.6,0.8,0.6,1.4c0,0.6-0.2,1.1-0.6,1.4C215.2,209.1,214.7,209.3,214.1,209.3z"/> <path class="st6" d="M230.2,201.6l-6.7-10.6h4.1l4.5,7.8l4.5-7.8h3.9l-6.7,10.6v7.6h-3.7L230.2,201.6L230.2,201.6z"/> <path class="st6" d="M250.9,209.6c-1.8,0-3.4-0.4-4.8-1.2c-1.5-0.8-2.6-1.9-3.5-3.4c-0.9-1.4-1.3-3.1-1.3-5c0-1.7,0.4-3.3,1.2-4.7 s2-2.6,3.4-3.5c1.5-0.9,3.1-1.3,5-1.3c1.8,0,3.4,0.4,4.9,1.2c1.5,0.8,2.6,1.9,3.5,3.4c0.9,1.5,1.3,3.1,1.3,5 c0,1.7-0.4,3.3-1.2,4.7c-0.8,1.4-2,2.6-3.4,3.5S252.7,209.6,250.9,209.6z M250.9,206.3c1.1,0,2.1-0.3,3-0.8s1.6-1.2,2.1-2.2 s0.8-2.1,0.8-3.3s-0.2-2.2-0.7-3.1s-1.2-1.7-2.1-2.3c-0.9-0.6-1.9-0.8-3.1-0.8c-1.1,0-2.1,0.3-3,0.8s-1.6,1.2-2.1,2.2 s-0.8,2-0.8,3.3c0,1.2,0.2,2.2,0.7,3.1c0.5,0.9,1.2,1.7,2.1,2.3S249.7,206.3,250.9,206.3z"/> <path class="st6" d="M271.9,209.6c-2.5,0-4.5-0.7-5.9-2.1c-1.4-1.4-2.1-3.4-2.1-6V191h3.7v10.3c0,3.4,1.5,5.1,4.4,5.1 s4.4-1.7,4.4-5.1V191h3.7v10.5c0,2.6-0.7,4.6-2.1,6C276.5,208.9,274.5,209.6,271.9,209.6z"/> <path class="st6" d="M284.5,190.9h5.9c2.1,0,3.7,0.5,5,1.5s1.8,2.5,1.8,4.3c0,1.1-0.3,2-0.8,2.9s-1.3,1.5-2.3,2.1l4.9,7.5h-4.1 l-3.9-6.6c-0.3,0-0.5,0-0.7,0s-0.4,0-0.5,0H288v6.5h-3.5V190.9z M288,199.7h1.8c2.5,0,3.8-1,3.8-3c0-0.9-0.3-1.7-0.9-2.2 s-1.5-0.7-2.7-0.7h-2V199.7z"/> <path class="st6" d="M307.3,190.9h3.7v7.7l7.4-7.7h4.6l-8.6,8.7l9.4,9.6h-5L311,201v8.1h-3.7V190.9z"/> <path class="st6" d="M326.3,190.9h12.1v3.1h-8.5v4.4h7.5v3.1h-7.5v4.7h8.8v3.1h-12.4V190.9z"/> <path class="st6" d="M347.2,201.6l-6.7-10.6h4.1l4.5,7.8l4.5-7.8h3.9l-6.7,10.6v7.6h-3.7v-7.6H347.2z"/> <path class="st6" d="M359,209.3c-0.6,0-1.1-0.2-1.5-0.6c-0.4-0.4-0.6-0.9-0.6-1.4c0-0.6,0.2-1,0.6-1.4s0.9-0.5,1.5-0.5 s1.1,0.2,1.5,0.6c0.4,0.4,0.6,0.8,0.6,1.4c0,0.6-0.2,1.1-0.6,1.4C360,209.1,359.6,209.3,359,209.3z"/> </g> <path id="Y_2_" class="st6" d="M503.1,170.8"/> </g> </svg>